<svg xmlns="http://www.w3.org/2000/svg" viewBox="0 0 234 144" enable-background="new 0 0 234 144"><g fill="#fff"><path d="M72 4c37.5 0 68 30.5 68 68s-30.5 68-68 68S4 109.5 4 72 34.5 4 72 4m0-4C32.2 0 0 32.2 0 72s32.2 72 72 72 72-32.2 72-72S111.8 0 72 0zM117 4c37.5 0 68 30.5 68 68s-30.5 68-68 68-68-30.5-68-68S79.5 4 117 4m0-4C77.2 0 45 32.2 45 72s32.2 72 72 72 72-32.2 72-72-32.2-72-72-72zM162 4c37.5 0 68 30.5 68 68s-30.5 68-68 68-68-30.5-68-68 30.5-68 68-68m0-4c-39.8 0-72 32.2-72 72s32.2 72 72 72 72-32.2 72-72-32.2-72-72-72z"/></g></svg>